<svg width="16" height="16" viewBox="0 0 16 16" fill="none" xmlns="http://www.w3.org/2000/svg">
<g id="filter" >
  <path d="M9 15.75C9 15.5511 9.07902 15.3603 9.21967 15.2197C9.36032 15.079 9.55109 15 9.75 15H14.25C14.4489 15 14.6397 15.079 14.7803 15.2197C14.921 15.3603 15 15.5511 15 15.75C15 15.9489 14.921 16.1397 14.7803 16.2803C14.6397 16.421 14.4489 16.5 14.25 16.5H9.75C9.55109 16.5 9.36032 16.421 9.21967 16.2803C9.07902 16.1397 9 15.9489 9 15.75ZM6 11.25C6 11.0511 6.07902 10.8603 6.21967 10.7197C6.36032 10.579 6.55109 10.5 6.75 10.5H17.25C17.4489 10.5 17.6397 10.579 17.7803 10.7197C17.921 10.8603 18 11.0511 18 11.25C18 11.4489 17.921 11.6397 17.7803 11.7803C17.6397 11.921 17.4489 12 17.25 12H6.75C6.55109 12 6.36032 11.921 6.21967 11.7803C6.07902 11.6397 6 11.4489 6 11.25ZM3 6.75C3 6.55109 3.07902 6.36032 3.21967 6.21967C3.36032 6.07902 3.55109 6 3.75 6H20.25C20.4489 6 20.6397 6.07902 20.7803 6.21967C20.921 6.36032 21 6.55109 21 6.75C21 6.94891 20.921 7.13968 20.7803 7.28033C20.6397 7.42098 20.4489 7.5 20.25 7.5H3.75C3.55109 7.5 3.36032 7.42098 3.21967 7.28033C3.07902 7.13968 3 6.94891 3 6.75Z" fill="black" />
</g>
<g id="save" >
  <path fill-rule="evenodd" clip-rule="evenodd" d="M7.9998 4.41001C9.3868 2.98501 12.8538 5.48001 7.9998 8.68701C3.1458 5.48001 6.6128 2.98601 7.9998 4.41201V4.41001Z" fill="black" />
  <path d="M2 2C2 1.46957 2.21071 0.960859 2.58579 0.585786C2.96086 0.210714 3.46957 0 4 0L12 0C12.5304 0 13.0391 0.210714 13.4142 0.585786C13.7893 0.960859 14 1.46957 14 2V15.5C14 15.5904 13.9754 15.6792 13.9289 15.7568C13.8824 15.8343 13.8157 15.8979 13.736 15.9405C13.6563 15.9832 13.5664 16.0035 13.4761 15.9992C13.3858 15.9948 13.2983 15.9661 13.223 15.916L8 13.101L2.777 15.916C2.70171 15.9661 2.61423 15.9948 2.52389 15.9992C2.43355 16.0035 2.34373 15.9832 2.264 15.9405C2.18427 15.8979 2.1176 15.8343 2.07111 15.7568C2.02462 15.6792 2.00005 15.5904 2 15.5V2ZM4 1C3.73478 1 3.48043 1.10536 3.29289 1.29289C3.10536 1.48043 3 1.73478 3 2V14.566L7.723 12.084C7.80506 12.0294 7.90143 12.0003 8 12.0003C8.09857 12.0003 8.19494 12.0294 8.277 12.084L13 14.566V2C13 1.73478 12.8946 1.48043 12.7071 1.29289C12.5196 1.10536 12.2652 1 12 1H4Z" fill="black" />
</g>
<g id="people">
<path d="M7 14C7 14 6 14 6 13C6 12 7 9 11 9C15 9 16 12 16 13C16 14 15 14 15 14H7ZM11 8C11.7956 8 12.5587 7.68393 13.1213 7.12132C13.6839 6.55871 14 5.79565 14 5C14 4.20435 13.6839 3.44129 13.1213 2.87868C12.5587 2.31607 11.7956 2 11 2C10.2044 2 9.44129 2.31607 8.87868 2.87868C8.31607 3.44129 8 4.20435 8 5C8 5.79565 8.31607 6.55871 8.87868 7.12132C9.44129 7.68393 10.2044 8 11 8V8Z" fill="black" />
  <path fill-rule="evenodd" clip-rule="evenodd" d="M5.216 14C5.06775 13.6878 4.99382 13.3455 5 13C5 11.645 5.68 10.25 6.936 9.28C6.30909 9.08684 5.65595 8.99237 5 9C1 9 0 12 0 13C0 14 1 14 1 14H5.216Z" fill="black" />
  <path d="M4.5 8C5.16304 8 5.79893 7.73661 6.26777 7.26777C6.73661 6.79893 7 6.16304 7 5.5C7 4.83696 6.73661 4.20107 6.26777 3.73223C5.79893 3.26339 5.16304 3 4.5 3C3.83696 3 3.20107 3.26339 2.73223 3.73223C2.26339 4.20107 2 4.83696 2 5.5C2 6.16304 2.26339 6.79893 2.73223 7.26777C3.20107 7.73661 3.83696 8 4.5 8V8Z" fill="black" />
</g>
<g id="like">
<path d="M8 15C6.14348 15 4.36301 14.2625 3.05025 12.9497C1.7375 11.637 1 9.85652 1 8C1 6.14348 1.7375 4.36301 3.05025 3.05025C4.36301 1.7375 6.14348 1 8 1C9.85652 1 11.637 1.7375 12.9497 3.05025C14.2625 4.36301 15 6.14348 15 8C15 9.85652 14.2625 11.637 12.9497 12.9497C11.637 14.2625 9.85652 15 8 15ZM8 16C10.1217 16 12.1566 15.1571 13.6569 13.6569C15.1571 12.1566 16 10.1217 16 8C16 5.87827 15.1571 3.84344 13.6569 2.34315C12.1566 0.842855 10.1217 0 8 0C5.87827 0 3.84344 0.842855 2.34315 2.34315C0.842855 3.84344 0 5.87827 0 8C0 10.1217 0.842855 12.1566 2.34315 13.6569C3.84344 15.1571 5.87827 16 8 16V16Z" fill="black" />
  <path d="M11.315 10.014C11.41 9.99164 11.5094 9.99754 11.601 10.031C11.6926 10.0644 11.7724 10.1239 11.8307 10.2021C11.8889 10.2803 11.923 10.3738 11.9288 10.4712C11.9345 10.5685 11.9117 10.6655 11.863 10.75C11.4682 11.4343 10.9 12.0026 10.2157 12.3976C9.53141 12.7926 8.75515 13.0003 7.96505 13C7.17494 13.0003 6.39868 12.7926 5.71439 12.3976C5.0301 12.0026 4.46192 11.4343 4.06705 10.75C4.01842 10.6655 3.99558 10.5685 4.00133 10.4712C4.00708 10.3738 4.04118 10.2803 4.09942 10.2021C4.15766 10.1239 4.2375 10.0644 4.32912 10.031C4.42073 9.99754 4.52012 9.99164 4.61505 10.014H4.62005L4.63705 10.019L4.70405 10.034L4.95605 10.089C5.17105 10.135 5.47105 10.197 5.81305 10.258C6.50605 10.382 7.33505 10.5 7.96505 10.5C8.59505 10.5 9.42505 10.382 10.117 10.258C10.4883 10.1912 10.858 10.1165 11.226 10.034L11.293 10.019L11.31 10.015L11.315 10.013V10.014ZM4.75605 4.56599C5.51905 3.14199 8.77605 4.44599 5.70805 7.99999C1.21205 6.40399 3.35805 3.70199 4.75605 4.56599ZM11.244 4.56599C12.642 3.70199 14.788 6.40399 10.292 7.99999C7.22505 4.44599 10.482 3.14199 11.244 4.56599Z" fill="black" />
</g>
</svg>