<svg width="24" height="24" viewBox="0 0 24 24" fill="none" xmlns="http://www.w3.org/2000/svg">
  <g id="filter">
    <path
      d="M9 15.75C9 15.5511 9.07902 15.3603 9.21967 15.2197C9.36032 15.079 9.55109 15 9.75 15H14.25C14.4489 15 14.6397 15.079 14.7803 15.2197C14.921 15.3603 15 15.5511 15 15.75C15 15.9489 14.921 16.1397 14.7803 16.2803C14.6397 16.421 14.4489 16.5 14.25 16.5H9.75C9.55109 16.5 9.36032 16.421 9.21967 16.2803C9.07902 16.1397 9 15.9489 9 15.75ZM6 11.25C6 11.0511 6.07902 10.8603 6.21967 10.7197C6.36032 10.579 6.55109 10.5 6.75 10.5H17.25C17.4489 10.5 17.6397 10.579 17.7803 10.7197C17.921 10.8603 18 11.0511 18 11.25C18 11.4489 17.921 11.6397 17.7803 11.7803C17.6397 11.921 17.4489 12 17.25 12H6.75C6.55109 12 6.36032 11.921 6.21967 11.7803C6.07902 11.6397 6 11.4489 6 11.25ZM3 6.75C3 6.55109 3.07902 6.36032 3.21967 6.21967C3.36032 6.07902 3.55109 6 3.75 6H20.25C20.4489 6 20.6397 6.07902 20.7803 6.21967C20.921 6.36032 21 6.55109 21 6.75C21 6.94891 20.921 7.13968 20.7803 7.28033C20.6397 7.42098 20.4489 7.5 20.25 7.5H3.75C3.55109 7.5 3.36032 7.42098 3.21967 7.28033C3.07902 7.13968 3 6.94891 3 6.75Z"
      fill="black" />
  </g>
  <g id="save">
    <path fill-rule="evenodd" clip-rule="evenodd"
      d="M7.9998 4.41001C9.3868 2.98501 12.8538 5.48001 7.9998 8.68701C3.1458 5.48001 6.6128 2.98601 7.9998 4.41201V4.41001Z"
      fill="black" />
    <path
      d="M2 2C2 1.46957 2.21071 0.960859 2.58579 0.585786C2.96086 0.210714 3.46957 0 4 0L12 0C12.5304 0 13.0391 0.210714 13.4142 0.585786C13.7893 0.960859 14 1.46957 14 2V15.5C14 15.5904 13.9754 15.6792 13.9289 15.7568C13.8824 15.8343 13.8157 15.8979 13.736 15.9405C13.6563 15.9832 13.5664 16.0035 13.4761 15.9992C13.3858 15.9948 13.2983 15.9661 13.223 15.916L8 13.101L2.777 15.916C2.70171 15.9661 2.61423 15.9948 2.52389 15.9992C2.43355 16.0035 2.34373 15.9832 2.264 15.9405C2.18427 15.8979 2.1176 15.8343 2.07111 15.7568C2.02462 15.6792 2.00005 15.5904 2 15.5V2ZM4 1C3.73478 1 3.48043 1.10536 3.29289 1.29289C3.10536 1.48043 3 1.73478 3 2V14.566L7.723 12.084C7.80506 12.0294 7.90143 12.0003 8 12.0003C8.09857 12.0003 8.19494 12.0294 8.277 12.084L13 14.566V2C13 1.73478 12.8946 1.48043 12.7071 1.29289C12.5196 1.10536 12.2652 1 12 1H4Z"
      fill="black" />
  </g>
  <g id="people">
    <path
      d="M7 14C7 14 6 14 6 13C6 12 7 9 11 9C15 9 16 12 16 13C16 14 15 14 15 14H7ZM11 8C11.7956 8 12.5587 7.68393 13.1213 7.12132C13.6839 6.55871 14 5.79565 14 5C14 4.20435 13.6839 3.44129 13.1213 2.87868C12.5587 2.31607 11.7956 2 11 2C10.2044 2 9.44129 2.31607 8.87868 2.87868C8.31607 3.44129 8 4.20435 8 5C8 5.79565 8.31607 6.55871 8.87868 7.12132C9.44129 7.68393 10.2044 8 11 8V8Z"
      fill="black" />
    <path fill-rule="evenodd" clip-rule="evenodd"
      d="M5.216 14C5.06775 13.6878 4.99382 13.3455 5 13C5 11.645 5.68 10.25 6.936 9.28C6.30909 9.08684 5.65595 8.99237 5 9C1 9 0 12 0 13C0 14 1 14 1 14H5.216Z"
      fill="black" />
    <path
      d="M4.5 8C5.16304 8 5.79893 7.73661 6.26777 7.26777C6.73661 6.79893 7 6.16304 7 5.5C7 4.83696 6.73661 4.20107 6.26777 3.73223C5.79893 3.26339 5.16304 3 4.5 3C3.83696 3 3.20107 3.26339 2.73223 3.73223C2.26339 4.20107 2 4.83696 2 5.5C2 6.16304 2.26339 6.79893 2.73223 7.26777C3.20107 7.73661 3.83696 8 4.5 8V8Z"
      fill="black" />
  </g>
  <g id="like">
    <path
      d="M8 15C6.14348 15 4.36301 14.2625 3.05025 12.9497C1.7375 11.637 1 9.85652 1 8C1 6.14348 1.7375 4.36301 3.05025 3.05025C4.36301 1.7375 6.14348 1 8 1C9.85652 1 11.637 1.7375 12.9497 3.05025C14.2625 4.36301 15 6.14348 15 8C15 9.85652 14.2625 11.637 12.9497 12.9497C11.637 14.2625 9.85652 15 8 15ZM8 16C10.1217 16 12.1566 15.1571 13.6569 13.6569C15.1571 12.1566 16 10.1217 16 8C16 5.87827 15.1571 3.84344 13.6569 2.34315C12.1566 0.842855 10.1217 0 8 0C5.87827 0 3.84344 0.842855 2.34315 2.34315C0.842855 3.84344 0 5.87827 0 8C0 10.1217 0.842855 12.1566 2.34315 13.6569C3.84344 15.1571 5.87827 16 8 16V16Z"
      fill="black" />
    <path
      d="M11.315 10.014C11.41 9.99164 11.5094 9.99754 11.601 10.031C11.6926 10.0644 11.7724 10.1239 11.8307 10.2021C11.8889 10.2803 11.923 10.3738 11.9288 10.4712C11.9345 10.5685 11.9117 10.6655 11.863 10.75C11.4682 11.4343 10.9 12.0026 10.2157 12.3976C9.53141 12.7926 8.75515 13.0003 7.96505 13C7.17494 13.0003 6.39868 12.7926 5.71439 12.3976C5.0301 12.0026 4.46192 11.4343 4.06705 10.75C4.01842 10.6655 3.99558 10.5685 4.00133 10.4712C4.00708 10.3738 4.04118 10.2803 4.09942 10.2021C4.15766 10.1239 4.2375 10.0644 4.32912 10.031C4.42073 9.99754 4.52012 9.99164 4.61505 10.014H4.62005L4.63705 10.019L4.70405 10.034L4.95605 10.089C5.17105 10.135 5.47105 10.197 5.81305 10.258C6.50605 10.382 7.33505 10.5 7.96505 10.5C8.59505 10.5 9.42505 10.382 10.117 10.258C10.4883 10.1912 10.858 10.1165 11.226 10.034L11.293 10.019L11.31 10.015L11.315 10.013V10.014ZM4.75605 4.56599C5.51905 3.14199 8.77605 4.44599 5.70805 7.99999C1.21205 6.40399 3.35805 3.70199 4.75605 4.56599ZM11.244 4.56599C12.642 3.70199 14.788 6.40399 10.292 7.99999C7.22505 4.44599 10.482 3.14199 11.244 4.56599Z"
      fill="black" />
  </g>
  <g id="exit">
    <path d="M8 6.5V5.5H3.5V4L1 6L3.5 8V6.5H8Z" fill="black" />
    <path
      d="M10 1.5H5.5C4.9485 1.5 4.5 1.9485 4.5 2.5V4.5H5.5V2.5H10V9.5H5.5V7.5H4.5V9.5C4.5 10.0515 4.9485 10.5 5.5 10.5H10C10.5515 10.5 11 10.0515 11 9.5V2.5C11 1.9485 10.5515 1.5 10 1.5Z"
      fill="black" />
  </g>
  <g id="home" transform="scale(0.875)">
    <path fill-rule="evenodd" clip-rule="evenodd"
      d="M3 20.25V10.5H4.5V20.25C4.5 20.4489 4.57902 20.6397 4.71967 20.7803C4.86032 20.921 5.05109 21 5.25 21H18.75C18.9489 21 19.1397 20.921 19.2803 20.7803C19.421 20.6397 19.5 20.4489 19.5 20.25V10.5H21V20.25C21 20.8467 20.7629 21.419 20.341 21.841C19.919 22.2629 19.3467 22.5 18.75 22.5H5.25C4.65326 22.5 4.08097 22.2629 3.65901 21.841C3.23705 21.419 3 20.8467 3 20.25ZM19.5 3.75V9L16.5 6V3.75C16.5 3.55109 16.579 3.36032 16.7197 3.21967C16.8603 3.07902 17.0511 3 17.25 3H18.75C18.9489 3 19.1397 3.07902 19.2803 3.21967C19.421 3.36032 19.5 3.55109 19.5 3.75Z"
      fill-opacity="0.92" />
    <path fill-rule="evenodd" clip-rule="evenodd"
      d="M10.9395 2.25C11.2208 1.96879 11.6022 1.81082 12 1.81082C12.3977 1.81082 12.7792 1.96879 13.0605 2.25L23.031 12.219C23.1718 12.3598 23.2509 12.5508 23.2509 12.75C23.2509 12.9492 23.1718 13.1402 23.031 13.281C22.8901 13.4218 22.6991 13.5009 22.5 13.5009C22.3008 13.5009 22.1098 13.4218 21.969 13.281L12 3.3105L2.03097 13.281C1.89014 13.4218 1.69913 13.5009 1.49997 13.5009C1.30081 13.5009 1.1098 13.4218 0.968971 13.281C0.828141 13.1402 0.749023 12.9492 0.749023 12.75C0.749023 12.5508 0.828141 12.3598 0.968971 12.219L10.9395 2.25Z"
      fill-opacity="0.92" />
  </g>
  <g id="search">
    <path
      d="M17.6134 15.5161C19.0658 13.5342 19.7163 11.0769 19.4348 8.63587C19.1533 6.19486 17.9605 3.95016 16.095 2.35085C14.2295 0.751532 11.829 -0.0844439 9.37362 0.0101658C6.91825 0.104776 4.58915 1.12299 2.85227 2.86111C1.1154 4.59923 0.098846 6.92907 0.00599324 9.3845C-0.0868595 11.8399 0.750834 14.2399 2.35148 16.1042C3.95213 17.9685 6.19769 19.1598 8.6389 19.4395C11.0801 19.7193 13.5369 19.067 15.5179 17.6131H15.5164C15.5614 17.6731 15.6094 17.7302 15.6634 17.7857L21.4384 23.5606C21.7196 23.8421 22.1012 24.0003 22.4991 24.0005C22.897 24.0006 23.2787 23.8427 23.5601 23.5614C23.8416 23.2801 23.9998 22.8986 23.9999 22.5007C24.0001 22.1028 23.8421 21.7211 23.5609 21.4397L17.7859 15.6646C17.7322 15.6104 17.6746 15.5602 17.6134 15.5147V15.5161ZM18.0004 9.75015C18.0004 10.8336 17.787 11.9064 17.3724 12.9073C16.9578 13.9082 16.3501 14.8177 15.584 15.5838C14.8179 16.3499 13.9084 16.9576 12.9075 17.3722C11.9066 17.7868 10.8338 18.0002 9.75037 18.0002C8.66696 18.0002 7.59417 17.7868 6.59323 17.3722C5.5923 16.9576 4.68282 16.3499 3.91674 15.5838C3.15066 14.8177 2.54297 13.9082 2.12836 12.9073C1.71376 11.9064 1.50037 10.8336 1.50037 9.75015C1.50037 7.56211 2.36956 5.4637 3.91674 3.91652C5.46391 2.36935 7.56233 1.50015 9.75037 1.50015C11.9384 1.50015 14.0368 2.36935 15.584 3.91652C17.1312 5.4637 18.0004 7.56211 18.0004 9.75015Z"
      fill-opacity="0.92" />
  </g>
  <g id="add">
    <path
      d="M23.2526 2.9101C23.3927 3.05069 23.4714 3.2411 23.4714 3.4396C23.4714 3.63811 23.3927 3.82852 23.2526 3.9691L21.6881 5.5351L18.6881 2.5351L20.2526 0.969102C20.3932 0.828498 20.584 0.749512 20.7828 0.749512C20.9817 0.749512 21.1724 0.828498 21.3131 0.969102L23.2526 2.9086V2.9101ZM20.6276 6.5941L17.6276 3.5941L7.40807 13.8151C7.32552 13.8976 7.26337 13.9983 7.22657 14.1091L6.01907 17.7301C5.99717 17.7961 5.99407 17.8669 6.01009 17.9346C6.02612 18.0023 6.06066 18.0642 6.10984 18.1133C6.15901 18.1625 6.2209 18.1971 6.28858 18.2131C6.35626 18.2291 6.42706 18.226 6.49307 18.2041L10.1141 16.9966C10.2247 16.9602 10.3254 16.8986 10.4081 16.8166L20.6276 6.5956V6.5941Z"
      fill-opacity="0.92" />
    <path fill-rule="evenodd" clip-rule="evenodd"
      d="M1.5 20.25C1.5 20.8467 1.73705 21.419 2.15901 21.841C2.58097 22.2629 3.15326 22.5 3.75 22.5H20.25C20.8467 22.5 21.419 22.2629 21.841 21.841C22.2629 21.419 22.5 20.8467 22.5 20.25V11.25C22.5 11.0511 22.421 10.8603 22.2803 10.7197C22.1397 10.579 21.9489 10.5 21.75 10.5C21.5511 10.5 21.3603 10.579 21.2197 10.7197C21.079 10.8603 21 11.0511 21 11.25V20.25C21 20.4489 20.921 20.6397 20.7803 20.7803C20.6397 20.921 20.4489 21 20.25 21H3.75C3.55109 21 3.36032 20.921 3.21967 20.7803C3.07902 20.6397 3 20.4489 3 20.25V3.75C3 3.55109 3.07902 3.36032 3.21967 3.21967C3.36032 3.07902 3.55109 3 3.75 3H13.5C13.6989 3 13.8897 2.92098 14.0303 2.78033C14.171 2.63968 14.25 2.44891 14.25 2.25C14.25 2.05109 14.171 1.86032 14.0303 1.71967C13.8897 1.57902 13.6989 1.5 13.5 1.5H3.75C3.15326 1.5 2.58097 1.73705 2.15901 2.15901C1.73705 2.58097 1.5 3.15326 1.5 3.75V20.25Z"
      fill-opacity="0.92" />
  </g>
  <g id="accordionArrow">
    <path fill-rule="evenodd" clip-rule="evenodd"
      d="M0.645917 0.645917C0.692363 0.599354 0.747539 0.562411 0.808284 0.537204C0.869029 0.511998 0.93415 0.499023 0.999917 0.499023C1.06568 0.499023 1.13081 0.511998 1.19155 0.537204C1.2523 0.562411 1.30747 0.599354 1.35392 0.645917L6.99992 6.29292L12.6459 0.645917C12.6924 0.599429 12.7476 0.562553 12.8083 0.537394C12.8691 0.512234 12.9342 0.499285 12.9999 0.499285C13.0657 0.499285 13.1308 0.512234 13.1915 0.537394C13.2522 0.562553 13.3074 0.599429 13.3539 0.645917C13.4004 0.692405 13.4373 0.747594 13.4624 0.808333C13.4876 0.869073 13.5005 0.934173 13.5005 0.999917C13.5005 1.06566 13.4876 1.13076 13.4624 1.1915C13.4373 1.25224 13.4004 1.30743 13.3539 1.35392L7.35392 7.35392C7.30747 7.40048 7.2523 7.43742 7.19155 7.46263C7.1308 7.48784 7.06568 7.50081 6.99992 7.50081C6.93415 7.50081 6.86903 7.48784 6.80828 7.46263C6.74754 7.43742 6.69236 7.40048 6.64592 7.35392L0.645917 1.35392C0.599354 1.30747 0.562411 1.2523 0.537205 1.19155C0.511998 1.13081 0.499023 1.06568 0.499023 0.999917C0.499023 0.93415 0.511998 0.869028 0.537205 0.808283C0.562411 0.747538 0.599354 0.692363 0.645917 0.645917Z"
      fill="black" />
  </g>
  <g id="clock">
    <path
      d="M8.50001 5.5C8.50001 5.36739 8.44733 5.24021 8.35357 5.14645C8.2598 5.05268 8.13262 5 8.00001 5C7.8674 5 7.74023 5.05268 7.64646 5.14645C7.55269 5.24021 7.50001 5.36739 7.50001 5.5V8.862L6.07101 11.242C6.00272 11.3558 5.98242 11.492 6.01458 11.6208C6.04675 11.7495 6.12873 11.8602 6.24251 11.9285C6.35629 11.9968 6.49254 12.0171 6.62128 11.9849C6.75003 11.9528 6.86072 11.8708 6.92901 11.757L8.42901 9.257C8.47551 9.17934 8.50004 9.09051 8.50001 9V5.5Z"
      fill="black" />
    <path
      d="M6.5 0C6.36739 0 6.24021 0.0526784 6.14645 0.146447C6.05268 0.240215 6 0.367392 6 0.5C6 0.632608 6.05268 0.759785 6.14645 0.853553C6.24021 0.947322 6.36739 1 6.5 1H7V2.07C5.63827 2.26673 4.3647 2.86034 3.33838 3.77667C2.31205 4.693 1.57848 5.89143 1.22929 7.22224C0.880105 8.55306 0.930786 9.95726 1.37501 11.2594C1.81922 12.5616 2.63729 13.704 3.727 14.544L3.125 15.146C3.03111 15.2398 2.97832 15.367 2.97822 15.4996C2.97813 15.6323 3.03075 15.7596 3.1245 15.8535C3.21825 15.9474 3.34546 16.0002 3.47815 16.0003C3.61083 16.0004 3.73811 15.9478 3.832 15.854L4.578 15.108C5.62302 15.6946 6.80162 16.0018 8 16C9.19838 16.0018 10.377 15.6946 11.422 15.108L12.168 15.854C12.2619 15.9478 12.3892 16.0004 12.5219 16.0003C12.6545 16.0002 12.7817 15.9474 12.8755 15.8535C12.9693 15.7596 13.0219 15.6323 13.0218 15.4996C13.0217 15.367 12.9689 15.2398 12.875 15.146L12.274 14.544C13.3637 13.704 14.1818 12.5615 14.626 11.2592C15.0701 9.95697 15.1207 8.5527 14.7714 7.22186C14.4221 5.89101 13.6884 4.6926 12.662 3.77633C11.6355 2.86007 10.3618 2.26658 9 2.07V1H9.5C9.63261 1 9.75979 0.947322 9.85355 0.853553C9.94732 0.759785 10 0.632608 10 0.5C10 0.367392 9.94732 0.240215 9.85355 0.146447C9.75979 0.0526784 9.63261 0 9.5 0L6.5 0ZM7.538 3.018C7.84556 2.99461 8.15444 2.99461 8.462 3.018C10.0087 3.13745 11.449 3.85129 12.4807 5.00975C13.5124 6.16821 14.0553 7.68124 13.9955 9.23136C13.9358 10.7815 13.278 12.2482 12.1601 13.3238C11.0423 14.3994 9.55127 15.0002 8 15.0002C6.44873 15.0002 4.95774 14.3994 3.83989 13.3238C2.72205 12.2482 2.06422 10.7815 2.00446 9.23136C1.94469 7.68124 2.48762 6.16821 3.51933 5.00975C4.55104 3.85129 5.99133 3.13745 7.538 3.018V3.018ZM2.53287e-09 3.5C2.53287e-09 4.253 0.333 4.929 0.86 5.387C1.63175 3.86695 2.86695 2.63175 4.387 1.86C4.05288 1.47553 3.60929 1.20229 3.11561 1.07687C2.62192 0.951439 2.10171 0.979805 1.62459 1.15817C1.14747 1.33653 0.736221 1.65638 0.445884 2.07489C0.155546 2.49341 -2.29203e-05 2.99063 2.53287e-09 3.5H2.53287e-09ZM13.5 1C12.747 1 12.071 1.333 11.613 1.86C13.1331 2.63175 14.3683 3.86695 15.14 5.387C15.5245 5.05288 15.7977 4.60929 15.9231 4.11561C16.0486 3.62192 16.0202 3.10171 15.8418 2.62459C15.6635 2.14747 15.3436 1.73622 14.9251 1.44588C14.5066 1.15555 14.0094 0.999977 13.5 1V1Z"
      fill="black" />
  </g>
  <g id="subscribe">
    <path
      d="M0.75 10.5C0.75 10.5 0 10.5 0 9.75C0 9 0.75 6.75 4.5 6.75C8.25 6.75 9 9 9 9.75C9 10.5 8.25 10.5 8.25 10.5H0.75ZM4.5 6C5.09674 6 5.66903 5.76295 6.09099 5.34099C6.51295 4.91903 6.75 4.34674 6.75 3.75C6.75 3.15326 6.51295 2.58097 6.09099 2.15901C5.66903 1.73705 5.09674 1.5 4.5 1.5C3.90326 1.5 3.33097 1.73705 2.90901 2.15901C2.48705 2.58097 2.25 3.15326 2.25 3.75C2.25 4.34674 2.48705 4.91903 2.90901 5.34099C3.33097 5.76295 3.90326 6 4.5 6V6Z"
      fill="white" />
    <path fill-rule="evenodd" clip-rule="evenodd"
      d="M10.125 3.75C10.2245 3.75 10.3198 3.78951 10.3902 3.85984C10.4605 3.93016 10.5 4.02554 10.5 4.125V5.25H11.625C11.7245 5.25 11.8198 5.28951 11.8902 5.35984C11.9605 5.43016 12 5.52554 12 5.625C12 5.72446 11.9605 5.81984 11.8902 5.89016C11.8198 5.96049 11.7245 6 11.625 6H10.5V7.125C10.5 7.22446 10.4605 7.31984 10.3902 7.39017C10.3198 7.46049 10.2245 7.5 10.125 7.5C10.0255 7.5 9.93016 7.46049 9.85983 7.39017C9.78951 7.31984 9.75 7.22446 9.75 7.125V6H8.625C8.52554 6 8.43016 5.96049 8.35983 5.89016C8.28951 5.81984 8.25 5.72446 8.25 5.625C8.25 5.52554 8.28951 5.43016 8.35983 5.35984C8.43016 5.28951 8.52554 5.25 8.625 5.25H9.75V4.125C9.75 4.02554 9.78951 3.93016 9.85983 3.85984C9.93016 3.78951 10.0255 3.75 10.125 3.75Z"
      fill="white" />
  </g>
  <g id="subscribers">
    <path
      d="M11.25 9.5C11.25 9.5 12 9.5 12 8.75C12 8 11.25 5.75 8.25 5.75C5.25 5.75 4.5 8 4.5 8.75C4.5 9.5 5.25 9.5 5.25 9.5H11.25ZM5.2665 8.75C5.26096 8.74924 5.25545 8.74824 5.25 8.747C5.25075 8.549 5.37525 7.9745 5.82 7.457C6.234 6.97175 6.9615 6.5 8.25 6.5C9.53775 6.5 10.2652 6.9725 10.68 7.457C11.1247 7.9745 11.2485 8.54975 11.25 8.747L11.244 8.7485C11.2405 8.74909 11.237 8.74959 11.2335 8.75H5.2665V8.75ZM8.25 4.25C8.64782 4.25 9.02936 4.09196 9.31066 3.81066C9.59196 3.52936 9.75 3.14782 9.75 2.75C9.75 2.35218 9.59196 1.97064 9.31066 1.68934C9.02936 1.40804 8.64782 1.25 8.25 1.25C7.85218 1.25 7.47064 1.40804 7.18934 1.68934C6.90804 1.97064 6.75 2.35218 6.75 2.75C6.75 3.14782 6.90804 3.52936 7.18934 3.81066C7.47064 4.09196 7.85218 4.25 8.25 4.25ZM10.5 2.75C10.5 3.04547 10.4418 3.33806 10.3287 3.61104C10.2157 3.88402 10.0499 4.13206 9.84099 4.34099C9.63206 4.54992 9.38402 4.71566 9.11104 4.82873C8.83806 4.9418 8.54547 5 8.25 5C7.95453 5 7.66194 4.9418 7.38896 4.82873C7.11598 4.71566 6.86794 4.54992 6.65901 4.34099C6.45008 4.13206 6.28434 3.88402 6.17127 3.61104C6.0582 3.33806 6 3.04547 6 2.75C6 2.15326 6.23705 1.58097 6.65901 1.15901C7.08097 0.737053 7.65326 0.5 8.25 0.5C8.84674 0.5 9.41903 0.737053 9.84099 1.15901C10.2629 1.58097 10.5 2.15326 10.5 2.75V2.75ZM5.202 5.96C4.90199 5.86553 4.59273 5.80343 4.2795 5.77475C4.1035 5.75801 3.92679 5.74975 3.75 5.75C0.75 5.75 0 8 0 8.75C0 9.25025 0.24975 9.5 0.75 9.5H3.912C3.80082 9.26586 3.74537 9.00915 3.75 8.75C3.75 7.9925 4.03275 7.2185 4.5675 6.572C4.74975 6.3515 4.962 6.14525 5.202 5.96ZM3.69 6.5C3.24612 7.16695 3.00633 7.94886 3 8.75H0.75C0.75 8.555 0.873 7.9775 1.32 7.457C1.72875 6.98 2.439 6.515 3.69 6.50075V6.5ZM1.125 3.125C1.125 2.52826 1.36205 1.95597 1.78401 1.53401C2.20597 1.11205 2.77826 0.875 3.375 0.875C3.97174 0.875 4.54403 1.11205 4.96599 1.53401C5.38795 1.95597 5.625 2.52826 5.625 3.125C5.625 3.72174 5.38795 4.29403 4.96599 4.71599C4.54403 5.13795 3.97174 5.375 3.375 5.375C2.77826 5.375 2.20597 5.13795 1.78401 4.71599C1.36205 4.29403 1.125 3.72174 1.125 3.125V3.125ZM3.375 1.625C2.97718 1.625 2.59564 1.78304 2.31434 2.06434C2.03304 2.34564 1.875 2.72718 1.875 3.125C1.875 3.52282 2.03304 3.90436 2.31434 4.18566C2.59564 4.46696 2.97718 4.625 3.375 4.625C3.77282 4.625 4.15436 4.46696 4.43566 4.18566C4.71696 3.90436 4.875 3.52282 4.875 3.125C4.875 2.72718 4.71696 2.34564 4.43566 2.06434C4.15436 1.78304 3.77282 1.625 3.375 1.625Z"
      fill="black" />
  </g>
  <g id="close">
    <path
      d="M24 12C24 15.1826 22.7357 18.2348 20.4853 20.4853C18.2348 22.7357 15.1826 24 12 24C8.8174 24 5.76516 22.7357 3.51472 20.4853C1.26428 18.2348 0 15.1826 0 12C0 8.8174 1.26428 5.76516 3.51472 3.51472C5.76516 1.26428 8.8174 0 12 0C15.1826 0 18.2348 1.26428 20.4853 3.51472C22.7357 5.76516 24 8.8174 24 12ZM8.031 6.969C7.89017 6.82817 7.69916 6.74905 7.5 6.74905C7.30084 6.74905 7.10983 6.82817 6.969 6.969C6.82817 7.10983 6.74905 7.30084 6.74905 7.5C6.74905 7.69916 6.82817 7.89017 6.969 8.031L10.9395 12L6.969 15.969C6.89927 16.0387 6.84395 16.1215 6.80621 16.2126C6.76848 16.3037 6.74905 16.4014 6.74905 16.5C6.74905 16.5986 6.76848 16.6963 6.80621 16.7874C6.84395 16.8785 6.89927 16.9613 6.969 17.031C7.10983 17.1718 7.30084 17.2509 7.5 17.2509C7.59862 17.2509 7.69627 17.2315 7.78738 17.1938C7.87848 17.156 7.96127 17.1007 8.031 17.031L12 13.0605L15.969 17.031C16.0387 17.1007 16.1215 17.156 16.2126 17.1938C16.3037 17.2315 16.4014 17.2509 16.5 17.2509C16.5986 17.2509 16.6963 17.2315 16.7874 17.1938C16.8785 17.156 16.9613 17.1007 17.031 17.031C17.1007 16.9613 17.156 16.8785 17.1938 16.7874C17.2315 16.6963 17.2509 16.5986 17.2509 16.5C17.2509 16.4014 17.2315 16.3037 17.1938 16.2126C17.156 16.1215 17.1007 16.0387 17.031 15.969L13.0605 12L17.031 8.031C17.1007 7.96127 17.156 7.87848 17.1938 7.78738C17.2315 7.69627 17.2509 7.59862 17.2509 7.5C17.2509 7.40138 17.2315 7.30373 17.1938 7.21262C17.156 7.12152 17.1007 7.03873 17.031 6.969C16.9613 6.89927 16.8785 6.84395 16.7874 6.80621C16.6963 6.76848 16.5986 6.74905 16.5 6.74905C16.4014 6.74905 16.3037 6.76848 16.2126 6.80621C16.1215 6.84395 16.0387 6.89927 15.969 6.969L12 10.9395L8.031 6.969Z"
      fill="black" />
  </g>
  <g id="addItem">
    <path
      d="M12 6C12 7.5913 11.3679 9.11742 10.2426 10.2426C9.11742 11.3679 7.5913 12 6 12C4.4087 12 2.88258 11.3679 1.75736 10.2426C0.632141 9.11742 0 7.5913 0 6C0 4.4087 0.632141 2.88258 1.75736 1.75736C2.88258 0.632141 4.4087 0 6 0C7.5913 0 9.11742 0.632141 10.2426 1.75736C11.3679 2.88258 12 4.4087 12 6ZM6.375 3.375C6.375 3.27554 6.33549 3.18016 6.26517 3.10984C6.19484 3.03951 6.09946 3 6 3C5.90054 3 5.80516 3.03951 5.73484 3.10984C5.66451 3.18016 5.625 3.27554 5.625 3.375V5.625H3.375C3.27554 5.625 3.18016 5.66451 3.10984 5.73484C3.03951 5.80516 3 5.90054 3 6C3 6.09946 3.03951 6.19484 3.10984 6.26517C3.18016 6.33549 3.27554 6.375 3.375 6.375H5.625V8.625C5.625 8.72446 5.66451 8.81984 5.73484 8.89017C5.80516 8.96049 5.90054 9 6 9C6.09946 9 6.19484 8.96049 6.26517 8.89017C6.33549 8.81984 6.375 8.72446 6.375 8.625V6.375H8.625C8.72446 6.375 8.81984 6.33549 8.89017 6.26517C8.96049 6.19484 9 6.09946 9 6C9 5.90054 8.96049 5.80516 8.89017 5.73484C8.81984 5.66451 8.72446 5.625 8.625 5.625H6.375V3.375Z"
      fill="#2DB100" />
  </g>
  <g id="removeFilter">
      <path opacity="0.5"
        d="M5 3.88906L8.88906 0L10 1.11094L6.11094 5L10 8.88906L8.88906 10L5 6.11094L1.11094 10L0 8.88906L3.88906 5L0 1.11094L1.11094 0L5 3.88906Z"
        fill="#207E00" />
  </g>
</svg>